<mxfile host="app.diagrams.net" modified="2023-05-21T10:58:16.567Z" agent="Mozilla/5.0 (Macintosh; Intel Mac OS X 10_15_7) AppleWebKit/537.36 (KHTML, like Gecko) Chrome/112.0.0.0 Safari/537.36" version="21.2.9" etag="IocCHc-OAaBtCQMREctJ" type="github">
  <diagram name="第 1 页" id="ItaRV95mY0Xa-xprcMig">
    <mxGraphModel>
      <root>
        <mxCell id="0" />
        <mxCell id="1" parent="0" />
      </root>
    </mxGraphModel>
  </diagram>
</mxfile>
